# xmcd
#
# Track frame offsets: 
#        150
#        16454
#        32017
#        45020
#        60219
#        78966
#        93636
#        110949
#        124622
#        139774
#        155596
#        169737
#
# Disc length: 2483 seconds
#
# Revision: 3
# Processed by: cddbd v1.5.2PL0 Copyright (c) Steve Scherf et al.
# Submitted via: ExactAudioCopy v1.3
#
DISCID=9009b10c
DTITLE=Travis Tritt - My Honky Tonk History
DYEAR=2004
DGENRE=Country
TTITLE0=Honky-Tonk History
TTITLE1=Too Far to Turn Around
TTITLE2=The Girl's Gone Wild
TTITLE3=What Say You (Duet with John Mellencamp)
TTITLE4=Circus Leaving Town
TTITLE5=Monkey Around
TTITLE6=I See Me
TTITLE7=When Good Ol' Boys Go Bad
TTITLE8=We've Had It All
TTITLE9=It's All About the Money
TTITLE10=Small Doses
TTITLE11=When in Rome
EXTD=
EXTT0=
EXTT1=
EXTT2=
EXTT3=
EXTT4=
EXTT5=
EXTT6=
EXTT7=
EXTT8=
EXTT9=
EXTT10=
EXTT11=
PLAYORDER=
